<svg xmlns="http://www.w3.org/2000/svg" viewBox="0 0 405.333 405.333" fill="none"><path fill-rule="evenodd" d="M202.667 0C117.333 0 32 10.667 32 85.333V288c0 41.173 33.493 74.667 74.667 74.667l-32 32v10.667h47.573l42.667-42.667h80.427L288 405.333h42.667v-10.667l-32-32c41.173 0 74.667-33.493 74.667-74.667V85.333C373.333 10.667 296.96 0 202.667 0zm-96 320c-17.707 0-32-14.293-32-32s14.293-32 32-32 32 14.293 32 32-14.294 32-32 32zm74.666-149.333H74.667V85.333h106.667v85.334zM298.667 320c-17.707 0-32-14.293-32-32s14.293-32 32-32 32 14.293 32 32-14.294 32-32 32zm32-149.333H224V85.333h106.667v85.334z" fill="#fff"/></svg>