<svg xmlns="http://www.w3.org/2000/svg" viewBox="0 0 841.9 595.3"><path d="M314.2 403.2h48v-37.8c0-10.8 6.4-16.7 17.3-16.7h76.7c7.9 0 10.8-2.9 10.8-11.1V318c0-7.9-2.9-11.1-10.8-11.1h-76.7c-10.8 0-17.3-5.9-17.3-16.7v-33.7c0-10.8 6.4-16.7 17.3-16.7h76.7c7.9 0 10.8-2.9 10.8-11.1v-19.6c0-7.9-2.9-11.1-10.8-11.1h-93.9v-12.6h100.4c10.8 0 17.3 5.9 17.3 16.7v33.7c0 10.8-6.4 16.7-17.3 16.7H386c-7.9 0-10.8 3.2-10.8 11.1v19.6c0 8.2 2.9 11.1 10.8 11.1h76.7c10.8 0 17.3 5.9 17.3 16.7v33.7c0 10.8-6.4 16.7-17.3 16.7h-76.1c-7.9 0-11.4 2.9-11.4 10.8v31h91.9c29.8 0 60.9-12.6 60.9-40.7v-50.6c0-23.7-11.4-31.6-44.5-31.6v-12.6c33.1.3 44.5-7.6 44.5-31.3v-44.2c0-36.3-21.9-48.6-60.9-48.6H345.5c-20.2 0-31.3 11.1-31.3 31.3v228.3z" fill="#e42e2e"/><path d="M507.7 481.1h12v-18.4l8.2-33.1h-11.4l-2.6 19.6-2.6-19.6h-12l8.5 33.1v18.4zm-18.8 0h11.7l-4.7-22.5c2.3-2 3.5-5.6 3.5-10v-6.7c0-8.8-3.2-12.3-12.9-12.3H473v51.5h11.7v-18.4h.9l3.3 18.4zm-.8-39.6v9.1c0 1.5-.9 2.3-1.8 2.3h-1.2v-13.5h1.2c.9.1 1.8.7 1.8 2.1zm-29.3-1.1V470c0 .6-.9 1.5-1.5 1.5-.9 0-1.2-.9-1.2-1.5v-29.6c0-.6.3-1.2 1.2-1.2.6 0 1.5.6 1.5 1.2zm-14.9.6v28.4c0 7.6 6.1 12.3 13.5 12.3 7.6 0 13.5-4.7 13.5-12.3V441c0-7.3-5.9-12.3-13.5-12.3-7.4 0-13.5 4.9-13.5 12.3zm-18.5 40.1h11.7v-41.3h5.3v-10.2h-22.2v10.2h5.3v41.3zm-6.7-11.8v-10.2h-12v10.8c0 .6-.6 1.5-1.2 1.5-.9 0-1.5-.9-1.5-1.5v-29.6c0-.6.6-1.2 1.5-1.2.6 0 1.2.6 1.2 1.2v10.5h12v-10c0-7.6-5.9-12.3-13.2-12.3-7.6 0-13.5 4.4-13.5 12.3v28.4c0 7.9 5.9 12.3 13.5 12.3 7.4.1 13.2-4.3 13.2-12.2zm-38.9 11.8h11.4l-7-51.5h-14.3l-7.3 51.5H374l.9-7h4.4l.5 7zm-1.8-22.3l.3 6.7h-3.2l.6-6.7c.3-5.9 1.2-11.4 1.2-16.1.2 4.7.8 10.3 1.1 16.1zm-34.2 22.3h12V460h7v-10h-7v-10.2h8.5v-10.2h-20.5v51.5zm-15-18.8v6.7c0 1.5-.9 2-1.8 2h-.9v-11.7h.9c1.3.1 1.8 1 1.8 3zm0-20.8v6.7c0 1.5-.6 2-1.5 2h-1.2v-11.1h.9c1.3.1 1.8 1 1.8 2.4zm-14.6 39.6h12.3c10 0 14-4.1 14-12.6v-5.9c0-3.8-1.8-6.4-4.1-8.2 2.6-1.8 3.8-4.4 3.8-8.5v-4.1c0-9.1-3.8-12.3-12.9-12.3h-13.2v51.6z"/></svg>