<svg xmlns="http://www.w3.org/2000/svg" viewBox="0 0 213.7 397.96"><defs><style>.cls-2{fill:#fff}</style></defs><g id="Layer_2" data-name="Layer 2"><g id="Capa_1" data-name="Capa 1"><path d="M0 259.58h48v-37.76c0-10.82 6.44-16.68 17.27-16.68h76.67c7.9 0 10.83-2.92 10.83-11.12v-19.6c0-7.91-2.93-11.12-10.83-11.12H65.26c-10.83 0-17.26-5.86-17.26-16.69V113c0-10.83 6.44-16.68 17.27-16.68h76.67c7.9 0 10.83-2.93 10.83-11.12V65.55c0-7.9-2.93-11.12-10.83-11.12H48V41.85h100.37c10.83 0 17.27 5.85 17.27 16.68v33.65c0 10.83-6.44 16.68-17.27 16.68H71.7c-7.9 0-10.83 3.22-10.83 11.12v19.61c0 8.2 2.93 11.12 10.83 11.12h76.67c10.83 0 17.27 5.85 17.27 16.68v33.66c0 10.82-6.44 16.68-17.27 16.68H72.28c-7.9 0-11.41 2.92-11.41 10.83v31h91.89c29.85 0 60.87-12.59 60.87-40.68v-50.61c0-23.7-11.41-31.61-44.48-31.61v-12.58c33.07.29 44.48-7.61 44.48-31.31V48.58C213.63 12.29 191.68 0 152.76 0H31.31C11.12 0 0 11.12 0 31.31z" fill="#e42e2e"/><path class="cls-2" d="M193.51 337.46h12V319l8.19-33h-11.41l-2.64 19.61L197 286h-12l8.51 33zm-18.73 0h11.7l-4.68-22.54c2.34-2.05 3.51-5.56 3.51-9.95v-6.73c0-8.78-3.22-12.29-12.88-12.29H159v51.51h11.71V319h.88zM173.9 298v9c0 1.46-.88 2.34-1.76 2.34H171V295.9h1.17c.83 0 1.73.58 1.73 2.1zm-29.27-1.17v29.56a1.89 1.89 0 01-1.46 1.46c-.88 0-1.17-.88-1.17-1.46v-29.61a1.08 1.08 0 011.17-1.18c.58 0 1.46.59 1.46 1.18zm-14.93.58v28.39c0 7.61 6.15 12.29 13.47 12.29 7.61 0 13.46-4.68 13.46-12.29v-28.44c0-7.32-5.85-12.29-13.46-12.29-7.32 0-13.47 4.93-13.47 12.29zm-18.44 40.1H123v-41.32h5.27V286H106v10.24h5.27zm-6.73-11.71v-10.29h-12v10.83c0 .58-.58 1.46-1.17 1.46a1.56 1.56 0 01-1.46-1.46v-29.56a1.34 1.34 0 011.46-1.18 1.26 1.26 0 011.17 1.18v10.53h12v-9.95c0-7.61-5.85-12.29-13.17-12.29-7.61 0-13.46 4.39-13.46 12.29v28.39c0 7.9 5.85 12.29 13.46 12.29 7.32-.04 13.17-4.39 13.17-12.29zM65.6 337.46H77L70 286H55.65l-7.31 51.51h11.41l.88-7H65zm-1.75-22.25l.29 6.74h-3.22l.59-6.74c.29-5.85 1.17-11.41 1.17-16.09.32 4.68.88 10.24 1.17 16.09zM29.6 337.46h12v-21.07h7v-10h-7v-10.2h8.49V286H29.6zm-14.92-18.73v6.73c0 1.46-.88 2.05-1.76 2.05H12V315.8h.88c1.21 0 1.8.88 1.8 2.93zm0-20.78v6.73c0 1.46-.59 2.05-1.47 2.05H12V295.6h.88c1.21 0 1.8.88 1.8 2.4zM0 337.46h12.33c10 0 14.05-4.1 14.05-12.59V319a9.83 9.83 0 00-4.09-8.2c2.63-1.75 3.8-4.39 3.8-8.48v-4.1c0-9.07-3.8-12.29-12.88-12.29H0zM29.51 385.8c0 7.68-5.93 12.16-13.37 12.16S2.91 393.63 2.91 385.8v-28.57c0-7.83 5.78-12.17 13.23-12.17s13.37 4.49 13.37 12.17v5.32h-12v-5.78a1.31 1.31 0 00-1.36-1.37 1.26 1.26 0 00-1.3 1.37v29.49a1.27 1.27 0 001.3 1.37 1.32 1.32 0 001.36-1.37v-6h12zM47.52 397.36l-3.11-18.55h-.84v18.55h-11.7v-51.69h13.3c9.73 0 13.15 3.42 13.15 12.54V365c0 4.48-1.3 7.75-3.65 9.88l4.63 22.5zm-1-39.38c0-1.44-.54-2.35-1.68-2.35h-1v13.53h1c1.07 0 1.68-.76 1.68-2.13zM60.52 357.23c0-7.45 5.77-12.17 13.22-12.17s13.38 4.72 13.38 12.17v28.57c0 7.45-5.93 12.16-13.38 12.16s-13.22-4.71-13.22-12.16zm14.59-.46a1.26 1.26 0 00-1.29-1.37 1.28 1.28 0 00-1.37 1.37v29.49a1.28 1.28 0 001.37 1.37 1.26 1.26 0 001.29-1.37zM115.92 385.8c0 7.45-5.85 12.16-13.3 12.16s-13.3-4.71-13.3-12.16v-5.55h12v6a1.26 1.26 0 001.29 1.37 1.28 1.28 0 001.37-1.37v-5.4a3.39 3.39 0 00-1.75-3l-7.83-5.55c-4.56-3.19-5.09-5.93-5.09-12.62v-2.5c0-7.45 5.85-12.17 13.3-12.17s13.3 4.72 13.3 12.17v5.32H104v-5.78a1.28 1.28 0 00-1.37-1.37 1.26 1.26 0 00-1.29 1.37v5a3.26 3.26 0 001.6 2.89l7.36 5.39c4.79 3.5 5.62 6.16 5.62 12.54zM144.5 385.8c0 7.45-5.85 12.16-13.3 12.16s-13.3-4.71-13.3-12.16v-5.55h12v6a1.33 1.33 0 102.66 0v-5.4a3.4 3.4 0 00-1.74-3l-7.82-5.5c-4.56-3.19-5.09-5.93-5.09-12.62v-2.5c0-7.45 5.85-12.17 13.3-12.17s13.3 4.72 13.3 12.17v5.32h-11.95v-5.78a1.33 1.33 0 10-2.66 0v5a3.28 3.28 0 001.6 2.89l7.37 5.32c4.79 3.5 5.63 6.16 5.63 12.54zM148.31 342.81h24v10.91h-9.81v10.35h8.76v10.37h-8.76v22.92h-14.19zM174.31 397.36v-51.69h11.93v51.69zM193.92 397.36v-41.43h-5.78v-10.26h23.49v10.26h-5.78v41.43z"/></g></g></svg>