<svg xmlns="http://www.w3.org/2000/svg" viewBox="0 0 841.9 595.3">
    <path d="M314.1 474.3h-12v11c0 .8-.6 1.4-1.4 1.4-.8 0-1.4-.5-1.4-1.4v-29.4c0-.8.6-1.4 1.4-1.4.8 0 1.4.5 1.4 1.4v10.8h12v-10.3c0-7.6-5.9-12.1-13.4-12.1-7.4 0-13.2 4.4-13.2 12.1v28.5c0 7.8 5.8 12.1 13.2 12.1 7.5 0 13.4-4.4 13.4-12.1v-10.6zm16.9-8.2c0 1.4-.6 2.2-1.7 2.2h-1v-13.6h1c1.1 0 1.7.9 1.7 2.4v9zm12.8 30.3l-4.7-22.4c2.3-2.1 3.6-5.3 3.6-9.9v-6.7c0-9.1-3.4-12.6-13.1-12.6h-13.3v51.6H328V478h.8l3.1 18.4h11.9zm1.3-11.6c0 7.5 5.7 12.1 13.2 12.1 7.5 0 13.3-4.7 13.3-12.1v-28.5c0-7.4-5.9-12.1-13.3-12.1-7.5 0-13.2 4.7-13.2 12.1v28.5zm14.5.5c0 .8-.5 1.4-1.3 1.4s-1.4-.5-1.4-1.4v-29.4c0-.8.5-1.4 1.4-1.4.8 0 1.3.5 1.3 1.4v29.4zm40.7-3.7c0-6.4-.8-9-5.6-12.5l-7.3-5.3c-1.1-.8-1.6-1.6-1.6-2.9v-5c0-.8.5-1.4 1.3-1.4s1.4.5 1.4 1.4v5.8h11.9v-5.3c0-7.4-5.9-12.1-13.3-12.1-7.5 0-13.3 4.7-13.3 12.1v2.6c0 6.6.6 9.4 5.1 12.6l7.8 5.5c1.2 1 1.7 1.7 1.7 3v5.3c0 .8-.5 1.4-1.4 1.4-.8 0-1.3-.5-1.3-1.4v-5.9h-12v5.5c0 7.5 5.9 12.1 13.3 12.1s13.3-4.7 13.3-12.1v-3.4zm28.6 0c0-6.4-.8-9-5.6-12.5l-7.3-5.3c-1.1-.8-1.7-1.6-1.7-2.9v-5c0-.8.5-1.4 1.4-1.4.8 0 1.4.5 1.4 1.4v5.8H429v-5.3c0-7.4-5.9-12.1-13.3-12.1-7.5 0-13.3 4.7-13.3 12.1v2.6c0 6.6.5 9.4 5.1 12.6l7.8 5.5c1.3 1 1.8 1.7 1.8 3v5.3c0 .8-.5 1.4-1.4 1.4-.8 0-1.4-.5-1.4-1.4v-5.9h-12v5.5c0 7.5 5.9 12.1 13.3 12.1s13.3-4.7 13.3-12.1v-3.4zm14.3 14.8v-21h7.2v-10.2h-7.2V455h8.4v-10.2h-20.4v51.6h12zm22.4-51.6h-11.9v51.6h11.9v-51.6zm19.6 51.6V455h5.8v-10.2h-23.4V455h5.7v41.3h11.9zm-184.5-60.7c9.6 0 13.9-4 13.9-12.5v-5.9c0-3.8-1.7-6.2-4-7.9v-.2c2.4-1.9 3.8-4.6 3.8-8.6v-4.1c0-9.1-3.5-12.4-13-12.4h-13v51.6h12.3zm2.2-32.7c0 1.4-.6 2.1-1.6 2.1h-1.1v-11.2h1c1.1 0 1.7.9 1.7 2.3v6.8zm-.1 20.8c0 1.4-.6 2.1-1.7 2.1h-1v-11.7h1c1.3 0 1.7 1 1.7 2.9v6.7zm26.2 11.9v-21h7.1v-10.2H329v-10.2h8.4v-10.2H317v51.6h12zm23.4-15.5H349l.6-6.6c.5-5.7 1-11.4 1.2-16.3h.2c.2 4.7.6 10.6 1.1 16.3l.3 6.6zm12.8 15.5l-7.3-51.6h-14.4l-7.2 51.6h11.6l.7-7.1h4.4l.7 7.1h11.5zm27.2-22h-12v11c0 .8-.6 1.4-1.4 1.4s-1.4-.5-1.4-1.4v-29.4c0-.8.6-1.4 1.4-1.4s1.4.5 1.4 1.4V406h12v-10.3c0-7.7-5.9-12.1-13.4-12.1-7.4 0-13.2 4.3-13.2 12.1v28.5c0 7.8 5.8 12.1 13.2 12.1 7.5 0 13.4-4.4 13.4-12.1v-10.5zm19.2 22v-41.3h5.7v-10.2h-23.4v10.2h5.7v41.3h12zm7.2-11.5c0 7.5 5.8 12.1 13.3 12.1 7.4 0 13.3-4.7 13.3-12.1v-28.5c0-7.5-5.9-12.1-13.3-12.1-7.5 0-13.3 4.7-13.3 12.1v28.5zm14.6.5c0 .8-.5 1.4-1.3 1.4-.9 0-1.4-.5-1.4-1.4v-29.4c0-.8.5-1.4 1.4-1.4.8 0 1.3.5 1.3 1.4v29.4zm29.1-19.2c0 1.4-.6 2.1-1.7 2.1h-1v-13.5h1c1.1 0 1.7.9 1.7 2.3v9.1zm12.8 30.2l-4.7-22.4c2.4-2.1 3.7-5.4 3.7-9.9v-6.8c0-9.1-3.5-12.5-13.2-12.5h-13.3v51.6h11.7v-18.5h.8l3.2 18.5h11.8zm18.8 0v-18.5l8.2-33.1H491l-2.8 19.8-2.6-19.8h-11.7l8.2 33.1v18.4h12z" fill="#FFF"/>

    <path d="M288.3 357.8h48.1V320c0-10.8 6.5-16.6 17.2-16.6h76.9c7.8 0 10.8-3 10.8-11.2v-19.6c0-7.9-3-11.2-10.8-11.2h-76.9c-10.8 0-17.2-5.9-17.2-16.7V211c0-10.8 6.5-16.7 17.2-16.7h76.9c7.8 0 10.8-2.9 10.8-11.1v-19.7c0-7.9-3-11.1-10.8-11.1h-94.1v-12.6H437c10.9 0 17.2 5.8 17.2 16.6v33.8c0 10.9-6.3 16.7-17.2 16.7h-76.9c-7.8 0-10.8 3.2-10.8 11.1v19.6c0 8.2 3 11.2 10.8 11.2H437c10.9 0 17.2 5.9 17.2 16.7v33.7c0 10.8-6.3 16.7-17.2 16.7h-76.4c-7.8 0-11.4 2.9-11.4 10.8v31h92.1c30 0 61-12.6 61-40.7v-50.7c0-23.8-11.4-31.7-44.6-31.7V222c33.2.2 44.6-7.7 44.6-31.5v-44.2c0-36.4-22-48.7-61-48.7H319.6c-20.1 0-31.3 11.1-31.3 31.4v228.8z" fill="#e42e2e"/>
</svg>